PathFileType	4	(X/Y/Z)	D:\TRACE\spot_10-12-23\spot_arm_body_motion_3_9-platform.trc
DataRate	CameraRate	NumFrames	NumMarkers	Units	OrigDataRate	OrigDataStartFrame	OrigNumFrames
100.00	100.00	      36	5	mm	100.00	1	      7000
Frame#	Time	Left_Front			Right_Front			Left_Aft			Right_Aft			Post			
		X1	Y1	Z1	X2	Y2	Z2	X3	Y3	Z3	X4	Y4	Z4	X5	Y5	Z5	

1	0.000	-820.16113	123.36656	-602.55597	752.92969	126.66375	-595.44568	-736.50452	-79.16399	517.32294	680.91986	-89.91444	602.40155	-37.43634	905.80786	-784.38220	
2	0.010	-820.16010	123.37842	-602.54987	752.93146	126.69032	-595.43555	-736.48303	-79.08929	517.35980	680.92938	-89.88138	602.38934	-37.48523	905.79901	-784.29547	
3	0.020	-820.20001	123.37865	-602.54761	752.95837	126.67416	-595.41089	-736.49994	-79.13953	517.34772	680.93628	-89.86751	602.42169	-37.44366	905.68884	-784.21490	
4	0.030	-820.12933	123.29496	-602.54810	752.88196	126.63467	-595.43707	-736.49188	-79.19040	517.32782	680.88800	-89.88692	602.40375	-37.49800	905.71069	-784.16058	
5	0.040	-820.13763	123.27517	-602.53455	752.80237	126.55939	-595.59528	-736.46735	-79.24035	517.31934	680.87689	-89.90049	602.37592	-37.48902	905.68524	-784.12024	
6	0.050	-820.15564	123.28417	-602.51422	752.74036	126.60554	-595.62445	-736.48126	-79.21491	517.29376	680.84454	-89.89462	602.42206	-37.46242	905.72815	-784.23907	
7	0.060	-820.15076	123.37272	-602.56244	752.75494	126.66756	-595.62219	-736.49811	-79.18870	517.30542	680.92249	-89.89066	602.39880	-37.42033	905.77716	-784.36182	
8	0.070	-820.16504	123.35022	-602.51074	752.81329	126.66301	-595.59497	-736.51099	-79.18568	517.29468	680.93268	-89.87485	602.42584	-37.36880	905.83636	-784.46423	
9	0.080	-820.12677	123.30878	-602.50525	752.78436	126.70968	-595.63770	-736.47546	-79.16345	517.36401	680.93866	-89.89180	602.42719	-37.42885	905.82776	-784.47614	
10	0.090	-820.16565	123.32548	-602.54077	752.77985	126.64743	-595.60431	-736.50848	-79.19527	517.27954	680.87323	-89.90281	602.37378	-37.37744	905.83624	-784.47906	
11	0.100	-820.09338	123.26070	-602.54401	752.74652	126.58389	-595.62610	-736.51251	-79.18575	517.26581	680.92047	-89.90628	602.42157	-37.33072	905.75043	-784.44025	
12	0.110	-820.14050	123.32240	-602.55206	752.75171	126.61373	-595.63354	-736.52356	-79.11193	517.30768	680.91382	-89.90312	602.41559	-37.42850	905.76874	-784.39398	
13	0.120	-820.14130	123.32358	-602.53693	752.80005	126.66238	-595.61401	-736.49493	-79.11356	517.27191	680.90430	-89.83874	602.40723	-37.46122	905.74561	-784.32745	
14	0.130	-820.17230	123.34058	-602.53107	752.73163	126.67393	-595.62439	-736.50262	-79.14244	517.30920	680.89594	-89.84397	602.39392	-37.48652	905.72949	-784.24365	
15	0.140	-820.14545	123.30872	-602.52277	752.72766	126.66206	-595.62256	-736.50031	-79.16001	517.35126	680.88776	-89.85446	602.39679	-37.47833	905.72186	-784.20947	
16	0.150	-820.13672	123.30717	-602.55658	752.78876	126.63438	-595.59778	-736.49457	-79.17474	517.31293	680.86926	-89.86956	602.38092	-37.44471	905.73138	-784.20233	
17	0.160	-820.12756	123.31426	-602.54865	752.73163	126.64194	-595.64557	-736.47974	-79.18282	517.28961	680.91309	-89.86890	602.40802	-37.50061	905.79663	-784.25891	
18	0.170	-820.14276	123.37659	-602.53656	752.77228	126.62142	-595.61749	-736.49408	-79.16721	517.26105	680.92926	-89.90470	602.40308	-37.47263	905.83270	-784.33240	
19	0.180	-820.12292	123.36035	-602.53461	752.73334	126.69273	-595.63135	-736.48895	-79.18788	517.33136	680.88562	-89.88886	602.38416	-37.44999	905.82587	-784.40106	
20	0.190	-820.16736	123.32941	-602.52618	752.80701	126.68557	-595.58612	-736.50800	-79.17566	517.33344	680.92651	-89.88245	602.37970	-37.47034	905.78931	-784.44550	
21	0.200	-820.14679	123.29953	-602.52515	752.77576	126.64767	-595.61786	-736.49768	-79.20422	517.32794	680.92358	-89.84589	602.42114	-37.36248	905.76147	-784.43530	
22	0.210	-820.11505	123.28301	-602.55707	752.77991	126.62832	-595.59082	-736.53772	-79.14559	517.27997	680.90118	-89.87927	602.40167	-37.43501	905.73730	-784.40088	
23	0.220	-820.13696	123.31679	-602.56354	752.73639	126.60313	-595.64136	-736.52026	-79.15820	517.29803	680.90582	-89.89259	602.40540	-37.43419	905.74774	-784.37140	
24	0.230	-820.14648	123.34384	-602.52960	752.81775	126.63085	-595.61279	-736.49091	-79.08856	517.30841	680.90631	-89.84684	602.36053	-37.41367	905.71393	-784.33179	
25	0.240	-820.15747	123.38750	-602.53320	752.79187	126.64552	-595.56305	-736.46960	-79.10650	517.32605	680.92242	-89.87071	602.43115	-37.46398	905.70068	-784.28015	
26	0.250	-820.13599	123.33866	-602.50116	752.75439	126.67875	-595.58209	-736.49078	-79.13218	517.35907	680.90808	-89.85603	602.42181	-37.49697	905.74677	-784.28662	
27	0.260	-820.18475	123.31366	-602.52240	752.74896	126.63828	-595.60657	-736.48529	-79.20472	517.30676	680.88177	-89.86377	602.42059	-37.50607	905.79065	-784.23291	
28	0.270	-820.13208	123.34778	-602.53821	752.81561	126.67176	-595.59399	-736.53082	-79.19118	517.31903	680.88330	-89.89804	602.39734	-37.51368	905.82275	-784.26538	
29	0.280	-820.08081	123.35390	-602.57117	752.74530	126.66631	-595.59656	-736.53076	-79.16090	517.31366	680.89453	-89.89378	602.42572	-37.44044	905.81152	-784.29474	
30	0.290	-820.16284	123.35472	-602.50116	752.82025	126.66422	-595.57794	-736.49420	-79.14759	517.34485	680.91437	-89.86216	602.40924	-37.43190	905.82617	-784.31079	
31	0.300	-820.16730	123.33264	-602.49829	752.74261	126.68201	-595.56573	-736.50000	-79.12688	517.38086	680.90582	-89.83139	602.46820	-37.47546	905.76514	-784.30634	
32	0.310	-820.16974	123.33235	-602.52753	752.78046	126.63397	-595.58478	-736.50983	-79.16407	517.33698	680.89252	-89.83876	602.42169	-37.50666	905.75250	-784.34613	
33	0.320	-820.09918	123.31451	-602.58887	752.76611	126.61893	-595.58936	-736.52484	-79.13383	517.31311	680.86993	-89.83171	602.40198	-37.44118	905.75555	-784.33801	
34	0.330	-820.11517	123.31943	-602.55304	752.74365	126.60604	-595.59589	-736.49213	-79.13889	517.29175	680.91217	-89.87553	602.39545	-37.43031	905.78601	-784.34918	
35	0.340	-820.15082	123.34671	-602.52429	752.74567	126.65311	-595.60797	-736.49329	-79.13371	517.30652	680.89594	-89.81279	602.43878	-37.43594	905.81879	-784.35156	
36	0.350	-820.16815	123.33473	-602.50275	752.78186	126.66967	-595.60126	-736.49347	-79.15372	517.32239	680.90393	-89.87648	602.44446	-37.41665	905.77844	-784.35455	
